<?xml version="1.0" standalone="no"?><!DOCTYPE svg PUBLIC "-//W3C//DTD SVG 1.1//EN" "http://www.w3.org/Graphics/SVG/1.1/DTD/svg11.dtd"><svg t="1773673071081" class="icon" viewBox="0 0 1024 1024" version="1.1" xmlns="http://www.w3.org/2000/svg" p-id="12239" width="128" height="128" xmlns:xlink="http://www.w3.org/1999/xlink"><path d="M717.952 666.752a257.024 257.024 0 0 1-411.52-0.128 33.536 33.536 0 1 1 53.696-40.448A191.168 191.168 0 0 0 512 702.336c59.968 0 115.584-27.776 152.512-76.288a33.536 33.536 0 1 1 53.44 40.704M377.6 344c32.448 0 56 32.96 56 78.4 0 45.44-23.552 78.4-56 78.4S321.6 467.84 321.6 422.4c0-45.44 23.552-78.4 56-78.4m268.8 0c32.448 0 56 32.96 56 78.4 0 45.44-23.552 78.4-56 78.4S590.4 467.84 590.4 422.4c0-45.44 23.552-78.4 56-78.4M512 64a448 448 0 1 0 0 896A448 448 0 0 0 512 64" fill="#6430d6" p-id="12240"></path></svg>